<?xml version="1.0" encoding="utf-8"?>
<!-- Generator: Adobe Illustrator 24.0.0, SVG Export Plug-In . SVG Version: 6.00 Build 0)  -->
<svg version="1.1" id="레이어_1" xmlns="http://www.w3.org/2000/svg" xmlns:xlink="http://www.w3.org/1999/xlink" x="0px"
	 y="0px" viewBox="0 0 168 168" style="enable-background:new 0 0 168 168;" xml:space="preserve">
<style type="text/css">
	.st0{display:none;}
	.st1{display:inline;}
	.st2{fill:#C6C6C6;}
	.st3{fill:#FFFFFF;}
	.st4{fill:none;stroke:#19387E;stroke-width:4;stroke-linecap:round;stroke-linejoin:round;}
</style>
<g id="레이어_3" class="st0">
	<g class="st1">
		<path class="st2" d="M91.9-49.6v112h-112v-112H91.9 M92.9-50.6h-114v114h114V-50.6L92.9-50.6z"/>
	</g>
	<g class="st1">
		<path class="st2" d="M35.9-58.6c35.8,0,65,29.2,65,65s-29.2,65-65,65s-65-29.2-65-65S0.1-58.6,35.9-58.6 M35.9-59.6
			c-36.5,0-66,29.6-66,66s29.5,66,66,66s66-29.6,66-66S72.4-59.6,35.9-59.6L35.9-59.6z"/>
	</g>
	<g class="st1">
		<path class="st2" d="M82.9-58.6v130h-94v-130H82.9 M83.9-59.6h-96v132h96V-59.6L83.9-59.6z"/>
	</g>
	<g class="st1">
		<path class="st2" d="M100.9-40.1v93h-130v-93H100.9 M101.9-41.1h-132v95h132V-41.1L101.9-41.1z"/>
	</g>
</g>
<circle class="st3" cx="84" cy="84" r="84"/>
<g id="레이어_2_2_">
	<rect id="사각형_171" x="61.8" y="116.8" class="st4" width="44.4" height="12.3"/>
	<path id="패스_63" class="st4" d="M88.1,143.5h-8.1c-5,0-9.2-3.5-9.2-7.9l0,0v-6.4h26.5v6.4C97.2,140,93.2,143.5,88.1,143.5
		L88.1,143.5z"/>
	<path id="패스_64" class="st4" d="M118,80.4c0-18.5-15.2-33.6-34-33.6s-34,15-34,33.6c0,12.6,7.2,24.2,18.5,29.9v6.7h30.9v-6.7
		C110.9,104.6,118,93,118,80.4z"/>
	<path id="패스_65" class="st4" d="M70.8,79.7L84,91l13.2-11.4"/>
	<line id="선_36" class="st4" x1="84" y1="90.5" x2="84" y2="115.1"/>
	<g>
		<line class="st4" x1="84" y1="16.5" x2="84" y2="33.6"/>
		<g>
			<line class="st4" x1="43.9" y1="29.4" x2="55.1" y2="42.8"/>
			<line class="st4" x1="124.1" y1="29.4" x2="112.9" y2="42.8"/>
		</g>
		<g>
			<line class="st4" x1="23" y1="69.2" x2="40.5" y2="70.7"/>
			<line class="st4" x1="145" y1="69.2" x2="127.5" y2="70.7"/>
		</g>
	</g>
</g>
</svg>
