<?xml version="1.0" encoding="utf-8"?>
<!-- Generator: Adobe Illustrator 24.0.0, SVG Export Plug-In . SVG Version: 6.00 Build 0)  -->
<svg version="1.1" xmlns="http://www.w3.org/2000/svg" xmlns:xlink="http://www.w3.org/1999/xlink" x="0px" y="0px"
	 viewBox="0 0 145 145" style="enable-background:new 0 0 145 145;" xml:space="preserve">
<style type="text/css">
	.st0{fill:#977051;}
	.st1{fill:#F2D7D1;}
	.st2{fill:#25221E;}
	.st3{fill:#5F3413;}
	.st4{fill:#F2CBC3;}
	.st5{fill:#EA8B8B;}
	.st6{fill:#FFB9AE;}
</style>
<g id="그룹_1_1_">
</g>
<g id="레이어_3">
	<polygon class="st0" points="128,0 18,0 18,5 13,5 13,60 133,60 133,5 128,5 	"/>
	<rect x="23" y="65" class="st1" width="100" height="80"/>
	<rect x="38.5" y="88" width="21" height="2"/>
	<rect x="48.5" y="100" width="5" height="15"/>
	<rect x="92.5" y="100" width="5" height="15"/>
	<rect x="73" y="60" class="st2" width="60" height="30"/>
	<rect x="13" y="60" class="st2" width="60" height="5"/>
	<rect x="123" y="90" class="st2" width="10" height="10"/>
	<rect x="13" y="65" class="st2" width="10" height="35"/>
	<rect x="53" y="35" class="st2" width="40" height="15"/>
	<rect x="53" y="49.94" class="st3" width="40" height="10"/>
	<rect x="18" y="100" class="st4" width="5" height="17"/>
	<rect x="123" y="100" class="st4" width="5" height="17"/>
	<rect x="59.5" y="131" class="st5" width="27" height="4"/>
	<g>
		<rect x="25.96" y="125.87" class="st6" width="2" height="2"/>
		<rect x="27.96" y="123.87" class="st6" width="2" height="2"/>
		<rect x="29.96" y="121.87" class="st6" width="2" height="2"/>
		<rect x="31.96" y="119.87" class="st6" width="2" height="2"/>
		<rect x="31.96" y="125.87" class="st6" width="2" height="2"/>
		<rect x="33.96" y="123.87" class="st6" width="2" height="2"/>
		<rect x="35.96" y="121.87" class="st6" width="2" height="2"/>
		<rect x="37.96" y="119.87" class="st6" width="2" height="2"/>
		<rect x="37.96" y="125.87" class="st6" width="2" height="2"/>
		<rect x="39.96" y="123.87" class="st6" width="2" height="2"/>
		<rect x="41.96" y="121.87" class="st6" width="2" height="2"/>
		<rect x="43.96" y="119.87" class="st6" width="2" height="2"/>
		<rect x="98.04" y="125.87" class="st6" width="2" height="2"/>
		<rect x="100.04" y="123.87" class="st6" width="2" height="2"/>
		<rect x="102.04" y="121.87" class="st6" width="2" height="2"/>
		<rect x="104.04" y="119.87" class="st6" width="2" height="2"/>
		<rect x="104.04" y="125.87" class="st6" width="2" height="2"/>
		<rect x="106.04" y="123.87" class="st6" width="2" height="2"/>
		<rect x="108.04" y="121.87" class="st6" width="2" height="2"/>
		<rect x="110.04" y="119.87" class="st6" width="2" height="2"/>
		<rect x="110.04" y="125.87" class="st6" width="2" height="2"/>
		<rect x="112.04" y="123.87" class="st6" width="2" height="2"/>
		<rect x="114.04" y="121.87" class="st6" width="2" height="2"/>
		<rect x="116.04" y="119.87" class="st6" width="2" height="2"/>
	</g>
</g>
</svg>
