<?xml version="1.0" encoding="utf-8"?>
<!-- Generator: Adobe Illustrator 24.0.0, SVG Export Plug-In . SVG Version: 6.00 Build 0)  -->
<svg version="1.1" id="레이어_1" xmlns="http://www.w3.org/2000/svg" xmlns:xlink="http://www.w3.org/1999/xlink" x="0px"
	 y="0px" viewBox="0 0 168 168" style="enable-background:new 0 0 168 168;" xml:space="preserve">
<style type="text/css">
	.st0{display:none;}
	.st1{display:inline;}
	.st2{fill:#C6C6C6;}
	.st3{fill:#FFFFFF;}
	.st4{fill:none;stroke:#19387E;stroke-width:4;stroke-linecap:round;stroke-linejoin:round;}
	.st5{fill:#19387E;}
</style>
<g id="레이어_3" class="st0">
	<g class="st1">
		<path class="st2" d="M91.9-49.6v112h-112v-112H91.9 M92.9-50.6h-114v114h114V-50.6L92.9-50.6z"/>
	</g>
	<g class="st1">
		<path class="st2" d="M35.9-58.6c35.8,0,65,29.2,65,65s-29.2,65-65,65s-65-29.2-65-65S0.1-58.6,35.9-58.6 M35.9-59.6
			c-36.5,0-66,29.6-66,66s29.5,66,66,66s66-29.6,66-66S72.4-59.6,35.9-59.6L35.9-59.6z"/>
	</g>
	<g class="st1">
		<path class="st2" d="M82.9-58.6v130h-94v-130H82.9 M83.9-59.6h-96v132h96V-59.6L83.9-59.6z"/>
	</g>
	<g class="st1">
		<path class="st2" d="M100.9-40.1v93h-130v-93H100.9 M101.9-41.1h-132v95h132V-41.1L101.9-41.1z"/>
	</g>
</g>
<circle class="st3" cx="84" cy="84" r="84"/>
<g id="레이어_2_1_">
	<path id="패스_30" class="st4" d="M106.3,76.2V37H33v45.3h8.4c0,0,0.8,4.3-5,7.6c0,0,10.6,4.8,15.4-7.6"/>
	<path id="패스_31-2" class="st4" d="M135,129.9V83.4H59V130h56.2c4.7,13.2,15.2,8.1,15.2,8.1c-5.7-3.6-4.9-8.1-4.9-8.1L135,129.9
		z"/>
	<g id="그룹_87" transform="translate(16 4.954)">
		<path id="패스_32" class="st5" d="M55.7,48.5c0-0.8-0.3-1.6-0.9-2.1c-0.6-0.6-1.4-0.8-2.2-0.7c-1,0-2,0.3-2.8,0.9
			c-0.8,0.6-1.8,0.5-2.4-0.1l-0.2-0.1c-0.4-0.4-0.6-0.9-0.6-1.5s0.3-1.1,0.8-1.4c1.7-1.3,3.7-2,5.8-2c1.9-0.3,3.8,0.3,5.2,1.6
			c1.4,1.2,2.2,3.1,2.1,5.1c0,4.2-4.6,6.2-5.5,9.8c-0.3,1.1-1.2,1.9-2.3,2l0,0c-0.7,0-1.4-0.3-1.9-0.9c-0.4-0.5-0.6-1.3-0.4-2
			C51.7,53.2,55.7,51.2,55.7,48.5z M49.6,65.8c0-0.9,0.3-1.8,0.9-2.4c0.6-0.6,1.5-1,2.3-1c1.7,0.1,3.1,1.7,2.9,3.5
			c-0.1,1.8-1.6,3.2-3.3,3.1c-0.8,0-1.5-0.4-2-0.9C49.8,67.6,49.5,66.7,49.6,65.8z"/>
	</g>
	<g>
		<path id="패스_33" class="st5" d="M80.3,107.5c0-0.9,0.3-1.7,0.8-2.3c0.6-0.6,1.4-1,2.3-0.9c1.3-0.1,2.6,0.7,3.1,1.9
			c0.5,1.2,0.3,2.6-0.6,3.6s-2.3,1.3-3.6,0.8C81.1,110,80.3,108.8,80.3,107.5z"/>
		<path id="패스_33_1_" class="st5" d="M95.1,107.5c0-0.9,0.3-1.7,0.8-2.3c0.6-0.6,1.4-1,2.3-0.9c1.3-0.1,2.6,0.7,3.1,1.9
			c0.5,1.2,0.3,2.6-0.6,3.6s-2.3,1.3-3.6,0.8C95.9,110,95.1,108.8,95.1,107.5z"/>
		<path id="패스_33_2_" class="st5" d="M110,107.5c0-0.9,0.3-1.7,0.8-2.3c0.6-0.6,1.4-1,2.3-0.9c1.3-0.1,2.5,0.7,3.1,1.9
			c0.5,1.2,0.3,2.6-0.6,3.6s-2.3,1.3-3.6,0.8C110.8,110,110,108.8,110,107.5z"/>
	</g>
</g>
</svg>
