<?xml version="1.0" encoding="utf-8"?>
<!-- Generator: Adobe Illustrator 24.0.0, SVG Export Plug-In . SVG Version: 6.00 Build 0)  -->
<svg version="1.1" id="레이어_1" xmlns="http://www.w3.org/2000/svg" xmlns:xlink="http://www.w3.org/1999/xlink" x="0px"
	 y="0px" viewBox="0 0 168 168" style="enable-background:new 0 0 168 168;" xml:space="preserve">
<style type="text/css">
	.st0{display:none;}
	.st1{display:inline;}
	.st2{fill:#C6C6C6;}
	.st3{fill:#FFFFFF;}
	.st4{fill:none;stroke:#19387E;stroke-width:4;stroke-linejoin:round;}
	.st5{fill:none;stroke:#19387E;stroke-width:4;stroke-linecap:round;stroke-linejoin:round;}
	.st6{fill:#19387E;}
</style>
<g id="레이어_3" class="st0">
	<g class="st1">
		<path class="st2" d="M91.9-49.6v112h-112v-112H91.9 M92.9-50.6h-114v114h114V-50.6L92.9-50.6z"/>
	</g>
	<g class="st1">
		<path class="st2" d="M35.9-58.6c35.8,0,65,29.2,65,65s-29.2,65-65,65s-65-29.2-65-65S0.1-58.6,35.9-58.6 M35.9-59.6
			c-36.5,0-66,29.6-66,66s29.5,66,66,66s66-29.6,66-66S72.4-59.6,35.9-59.6L35.9-59.6z"/>
	</g>
	<g class="st1">
		<path class="st2" d="M82.9-58.6v130h-94v-130H82.9 M83.9-59.6h-96v132h96V-59.6L83.9-59.6z"/>
	</g>
	<g class="st1">
		<path class="st2" d="M100.9-40.1v93h-130v-93H100.9 M101.9-41.1h-132v95h132V-41.1L101.9-41.1z"/>
	</g>
</g>
<circle class="st3" cx="84" cy="84" r="84"/>
<g>
	<path id="패스_53" class="st4" d="M106,57H62v-2.5C62,44.9,70,37,79.8,37l0,0h8.4C98,37,106,44.8,106,54.5l0,0V57z"/>
	<path id="패스_54" class="st4" d="M84,23L84,23c-4.7,0-8.5,3.5-8.5,7.8l0,0V37h17v-6.2C92.5,26.5,88.7,23,84,23L84,23z"/>
	<path id="패스_55" class="st5" d="M92,35h6.4c14-0.1,25.5,11.1,25.6,25v59"/>
	<path id="패스_56" class="st5" d="M116.4,119.5h10.4c6-0.2,11.1,4.4,11.3,10.3v3.7h-29"/>
	<rect id="사각형_170" x="28" y="91.5" class="st5" width="75" height="17"/>
	<line id="선_27" class="st5" x1="38" y1="93.5" x2="38" y2="106.5"/>
	<line id="선_28" class="st5" x1="93" y1="93.5" x2="93" y2="106.5"/>
	<line id="선_29" class="st5" x1="45" y1="100" x2="86" y2="100"/>
	<path id="패스_57" class="st5" d="M39,108.5c-6-0.1-10.9,5.4-11,12.3c-0.1,6.9,4.7,12.6,10.7,12.7c0.1,0,0.2,0,0.3,0"/>
	<line id="선_30" class="st5" x1="39" y1="133.5" x2="99.8" y2="133.5"/>
	<line id="선_33" class="st5" x1="99" y1="117" x2="39" y2="117"/>
	<line id="선_33_1_" class="st5" x1="99" y1="125" x2="39" y2="125"/>
	<path id="패스_60" class="st4" d="M92,59c0,4.4-3.6,8-8,8s-8-3.6-8-8"/>
	<g>
		<g id="타원_6">
			<path class="st6" d="M77,71c-1.1,0-2,0.9-2,2s0.9,2,2,2s2-0.9,2-2S78.1,71,77,71L77,71z"/>
		</g>
		<g id="타원_6_1_">
			<path class="st6" d="M84,71c-1.1,0-2,0.9-2,2s0.9,2,2,2s2-0.9,2-2S85.1,71,84,71L84,71z"/>
		</g>
		<g id="타원_6_4_">
			<path class="st6" d="M91,71c-1.1,0-2,0.9-2,2s0.9,2,2,2s2-0.9,2-2S92.1,71,91,71L91,71z"/>
		</g>
	</g>
</g>
</svg>
